<svg width="24" height="24" viewBox="0 0 24 24" fill="none" xmlns="http://www.w3.org/2000/svg">
<path fill-rule="evenodd" clip-rule="evenodd" d="M18.5738 6C18.6161 5.91495 18.636 5.82227 18.6318 5.72919H18.6667C18.5176 2.52709 15.5799 0 12.0066 0C8.43333 0 5.49563 2.52709 5.34652 5.72919C5.32894 5.81877 5.32894 5.91042 5.34652 6H5.24228C3.53362 6 1.70713 7.01516 1.17685 9.74409L0.139873 17.1777C-0.708565 22.6355 2.41416 24 6.49137 24H17.5446C21.6101 24 24.6385 22.0243 23.8843 17.1777L22.8592 9.74409C22.2346 7.09157 20.467 6 18.7819 6H18.5738ZM16.6576 6C16.6205 5.91353 16.6008 5.82183 16.5995 5.72919C16.5995 3.42819 14.5198 1.56286 11.9543 1.56286C9.38885 1.56286 7.30912 3.42819 7.30912 5.72919C7.3267 5.81877 7.3267 5.91042 7.30912 6H16.6576ZM8.12931 12.1781C7.47851 12.1781 6.95093 11.6894 6.95093 11.0865C6.95093 10.4836 7.47851 9.99492 8.12931 9.99492C8.78012 9.99492 9.3077 10.4836 9.3077 11.0865C9.3077 11.6894 8.78012 12.1781 8.12931 12.1781ZM14.6693 11.0865C14.6693 11.6894 15.1969 12.1781 15.8477 12.1781C16.4985 12.1781 17.0261 11.6894 17.0261 11.0865C17.0261 10.4836 16.4985 9.99492 15.8477 9.99492C15.1969 9.99492 14.6693 10.4836 14.6693 11.0865Z" fill="#CFCFD2"/>
</svg>
