<svg width="30" height="30" viewBox="0 0 30 30" fill="none" xmlns="http://www.w3.org/2000/svg">
<path d="M16.25 18.5C16.25 17.9477 15.8023 17.5 15.25 17.5H13.75C11.6995 17.4992 9.68779 18.0589 7.93234 19.1186C6.46694 20.0032 5.22666 21.2082 4.30157 22.6379C4.14181 22.8848 3.74985 22.7941 3.75 22.5C3.75 15.9328 8.81391 10.5487 15.2501 10.0394C15.8007 9.99582 16.25 9.55227 16.25 8.99999V5.83061C16.25 4.99211 17.2199 4.52593 17.8747 5.04974L27.7739 12.9691C28.2743 13.3694 28.2743 14.1305 27.7739 14.5309L17.8747 22.4502C17.2199 22.974 16.25 22.5079 16.25 21.6694V18.5Z" fill="white"/>
</svg>
