<svg width="16" height="16" viewBox="0 0 16 16" fill="none" xmlns="http://www.w3.org/2000/svg">
<path d="M4.00001 12.382C5.47068 12.382 6.66668 11.186 6.66668 9.71532V2.95198L12.6667 5.13332V10.0866C12.2633 9.84629 11.8029 9.71809 11.3333 9.71532C9.86268 9.71532 8.66668 10.9113 8.66668 12.382C8.66668 13.8526 9.86268 15.0486 11.3333 15.0486C12.804 15.0486 14 13.8526 14 12.382V4.66665C14.0001 4.52987 13.958 4.39638 13.8795 4.28437C13.8011 4.17235 13.6899 4.08725 13.5613 4.04065L6.22801 1.37398C6.12734 1.33718 6.01927 1.32522 5.91299 1.33912C5.80671 1.35302 5.70535 1.39236 5.61753 1.45381C5.5297 1.51526 5.45801 1.597 5.40853 1.69209C5.35906 1.78717 5.33327 1.8928 5.33334 1.99998V7.41998C4.92992 7.17962 4.4696 7.05142 4.00001 7.04865C2.52934 7.04865 1.33334 8.24465 1.33334 9.71532C1.33334 11.186 2.52934 12.382 4.00001 12.382Z" fill="white"/>
</svg>
