<svg width="20" height="20" viewBox="0 0 16 16" fill="none" xmlns="http://www.w3.org/2000/svg">
<rect x="0.25" y="0.25" width="15.5" height="15.5" rx="7.75" fill="white" fill-opacity="0.3"/>
<rect x="0.25" y="0.25" width="15.5" height="15.5" rx="7.75" stroke="#CA987E" stroke-width="0.5"/>
<path fill-rule="evenodd" clip-rule="evenodd" d="M11.6832 4.62148C11.8561 4.62148 12 4.78298 12 4.98848V5.17848C12 5.37898 11.8561 5.54547 11.6832 5.54547H4.31727C4.14394 5.54547 4 5.37898 4 5.17848V4.98848C4 4.78298 4.14394 4.62148 4.31727 4.62148H5.61314C5.87638 4.62148 6.10547 4.41099 6.16469 4.11399L6.23255 3.77299C6.33802 3.3085 6.68511 3 7.08234 3H8.91766C9.31057 3 9.66155 3.3085 9.76313 3.74849L9.83575 4.11349C9.89453 4.41099 10.1236 4.62148 10.3873 4.62148H11.6832ZM11.0248 11.567C11.1601 10.1485 11.397 6.77854 11.397 6.74454C11.4056 6.64154 11.3758 6.54404 11.3166 6.46554C11.253 6.39204 11.1726 6.34854 11.084 6.34854H4.91935C4.8303 6.34854 4.74558 6.39204 4.6868 6.46554C4.62715 6.54404 4.59776 6.64154 4.60208 6.74454C4.60287 6.75078 4.61137 6.86949 4.62558 7.06795C4.68871 7.94957 4.86452 10.4051 4.97813 11.567C5.05853 12.423 5.55777 12.961 6.28092 12.9805C6.83895 12.995 7.41384 13 8.00169 13C8.5554 13 9.11775 12.995 9.69307 12.9805C10.4413 12.966 10.9401 12.4375 11.0248 11.567Z" fill="#FA3232"/>
</svg>
