<svg width="25" height="24" viewBox="0 0 25 24" fill="none" xmlns="http://www.w3.org/2000/svg">
<path fill-rule="evenodd" clip-rule="evenodd" d="M0.5 12C0.5 5.376 5.864 0 12.5 0C19.124 0 24.5 5.376 24.5 12C24.5 18.636 19.124 24 12.5 24C5.864 24 0.5 18.636 0.5 12ZM15.176 14.196L17.12 8.052C17.252 7.632 16.868 7.236 16.448 7.368L10.304 9.288C10.052 9.372 9.848 9.564 9.776 9.816L7.856 15.972C7.724 16.38 8.12 16.776 8.528 16.644L14.648 14.724C14.9 14.652 15.104 14.448 15.176 14.196Z" fill="white"/>
</svg>
