<svg width="19" height="11" viewBox="0 0 19 11" fill="none" xmlns="http://www.w3.org/2000/svg">
<path fill-rule="evenodd" clip-rule="evenodd" d="M17.7496 0.5H16.7496C16.1973 0.5 15.7496 0.919733 15.7496 1.4375V9.5625C15.7496 10.0803 16.1973 10.5 16.7496 10.5H17.7496C18.3019 10.5 18.7496 10.0803 18.7496 9.5625V1.4375C18.7496 0.919733 18.3019 0.5 17.7496 0.5ZM11.7497 2.5H12.7497C13.302 2.5 13.7497 2.92981 13.7497 3.46V9.54C13.7497 10.0702 13.302 10.5 12.7497 10.5H11.7497C11.1974 10.5 10.7497 10.0702 10.7497 9.54V3.46C10.7497 2.92981 11.1974 2.5 11.7497 2.5ZM7.74957 4.5H6.74957C6.19729 4.5 5.74957 4.94772 5.74957 5.5V9.5C5.74957 10.0523 6.19729 10.5 6.74957 10.5H7.74957C8.30186 10.5 8.74957 10.0523 8.74957 9.5V5.5C8.74957 4.94772 8.30186 4.5 7.74957 4.5ZM2.74957 6.5H1.74957C1.19729 6.5 0.749573 6.94772 0.749573 7.5V9.5C0.749573 10.0523 1.19729 10.5 1.74957 10.5H2.74957C3.30186 10.5 3.74957 10.0523 3.74957 9.5V7.5C3.74957 6.94772 3.30186 6.5 2.74957 6.5Z" fill="white"/>
</svg>
