<svg width="27" height="13" viewBox="0 0 27 13" fill="none" xmlns="http://www.w3.org/2000/svg">
<path opacity="0.35" d="M0.521973 2.66667C0.521973 1.47005 1.49202 0.5 2.68864 0.5H22.3553C23.5519 0.5 24.522 1.47005 24.522 2.66667V10.3333C24.522 11.53 23.5519 12.5 22.3553 12.5H2.68864C1.49202 12.5 0.521973 11.53 0.521973 10.3333V2.66667Z" stroke="white"/>
<path opacity="0.4" d="M25.672 5V9C26.4767 8.66122 27 7.87313 27 7C27 6.12687 26.4767 5.33878 25.672 5Z" fill="white"/>
<path d="M2.32196 3.66659C2.32196 2.93021 2.91891 2.33325 3.65529 2.33325H21.1886C21.925 2.33325 22.5219 2.93021 22.5219 3.66659V9.32992C22.5219 10.0663 21.925 10.6633 21.1886 10.6633H3.65529C2.91891 10.6633 2.32196 10.0663 2.32196 9.32992V3.66659Z" fill="white"/>
</svg>
