<svg width="20" height="18" viewBox="0 0 20 18" fill="none" xmlns="http://www.w3.org/2000/svg">
<path fill-rule="evenodd" clip-rule="evenodd" d="M10.2804 2.39929C11.3047 0.930696 12.7211 0 14.5703 0C16.1038 0 17.5069 0.64203 18.5161 1.80527C19.4739 2.90932 20 4.38404 20 5.95717C20 7.66817 19.344 9.25568 17.949 10.9411C16.9135 12.1922 15.8415 13.1863 12.9307 15.706C11.7817 16.7006 11.2565 17.1585 10.5675 17.7709L10.5424 17.7932C10.391 17.9277 10.1984 18 10 18C9.80151 18 9.60891 17.9278 9.45748 17.7931L9.43268 17.771C8.74301 17.158 8.21361 16.6965 7.06944 15.7061C4.15837 13.1862 3.08653 12.1921 2.05102 10.9411C0.656016 9.25573 0 7.66818 0 5.95717C0 4.38405 0.526103 2.90933 1.48387 1.8053C2.49311 0.64205 3.89624 0 5.42969 0C7.27888 0 8.69529 0.930696 9.71964 2.39928C9.81787 2.5401 9.91128 2.68471 10 2.83251C10.0887 2.68475 10.1821 2.54013 10.2804 2.39929Z" fill="white"/>
</svg>
