<svg width="25" height="24" viewBox="0 0 25 24" fill="none" xmlns="http://www.w3.org/2000/svg">
<path fill-rule="evenodd" clip-rule="evenodd" d="M18.4268 0C20.036 0 21.584 0.706667 22.7228 1.97467C23.8628 3.24 24.5 4.94667 24.5 6.73333V17.2667C24.5 20.9867 21.776 24 18.4268 24H6.572C3.2228 24 0.5 20.9867 0.5 17.2667V6.73333C0.5 3.01333 3.2108 0 6.572 0H18.4268ZM20.336 8.71979L20.432 8.61312C20.7188 8.22645 20.7188 7.66645 20.4188 7.27979C20.252 7.08112 20.0228 6.95979 19.784 6.93312C19.532 6.91845 19.292 7.01312 19.1108 7.19979L13.7 11.9998C13.004 12.6411 12.0068 12.6411 11.3 11.9998L5.89999 7.19979C5.52679 6.89312 5.01079 6.93312 4.69999 7.29312C4.37599 7.65312 4.33999 8.22645 4.61479 8.62646L4.77199 8.79979L10.232 13.5331C10.904 14.1198 11.7188 14.4398 12.572 14.4398C13.4228 14.4398 14.252 14.1198 14.9228 13.5331L20.336 8.71979Z" fill="#CFCFD2"/>
</svg>
