<svg width="24" height="24" viewBox="0 0 24 24" fill="none" xmlns="http://www.w3.org/2000/svg">
<path fill-rule="evenodd" clip-rule="evenodd" d="M6.804 0H17.208C21.276 0 24 2.856 24 7.104V16.908C24 21.144 21.276 24 17.208 24H6.804C2.736 24 0 21.144 0 16.908V7.104C0 2.856 2.736 0 6.804 0ZM6.62402 13.44C5.83202 13.44 5.18402 12.792 5.18402 12C5.18402 11.208 5.83202 10.5612 6.62402 10.5612C7.41602 10.5612 8.06402 11.208 8.06402 12C8.06402 12.792 7.41602 13.44 6.62402 13.44ZM10.56 12C10.56 12.792 11.208 13.44 12 13.44C12.792 13.44 13.44 12.792 13.44 12C13.44 11.208 12.792 10.5612 12 10.5612C11.208 10.5612 10.56 11.208 10.56 12ZM15.936 12C15.936 12.792 16.584 13.44 17.376 13.44C18.168 13.44 18.804 12.792 18.804 12C18.804 11.208 18.168 10.5612 17.376 10.5612C16.584 10.5612 15.936 11.208 15.936 12Z" fill="white"/>
</svg>
