<svg width="17" height="11" viewBox="0 0 17 11" fill="none" xmlns="http://www.w3.org/2000/svg">
<path fill-rule="evenodd" clip-rule="evenodd" d="M8.38618 2.2946C10.6021 2.2947 12.7332 3.14613 14.3392 4.67293C14.4601 4.79081 14.6534 4.78932 14.7725 4.6696L15.9285 3.50293C15.9888 3.44221 16.0224 3.35996 16.0219 3.27438C16.0214 3.1888 15.9869 3.10695 15.9258 3.04693C11.7107 -0.992614 5.06094 -0.992614 0.845845 3.04693C0.784787 3.1069 0.750143 3.18873 0.74958 3.27431C0.749017 3.35989 0.782581 3.44217 0.842845 3.50293L1.99918 4.6696C2.11821 4.7895 2.31165 4.79099 2.43251 4.67293C4.03866 3.14603 6.17007 2.29459 8.38618 2.2946ZM8.38611 6.09017C9.60359 6.0901 10.7776 6.54263 11.6801 7.35984C11.8022 7.47582 11.9945 7.4733 12.1134 7.35417L13.2681 6.1875C13.3289 6.12631 13.3627 6.04329 13.3618 5.95703C13.3609 5.87076 13.3255 5.78845 13.2634 5.72851C10.5152 3.17212 6.2593 3.17212 3.51111 5.72851C3.44903 5.78845 3.41361 5.8708 3.4128 5.9571C3.41198 6.04339 3.44584 6.1264 3.50677 6.1875L4.66111 7.35417C4.78009 7.4733 4.97238 7.47582 5.09444 7.35984C5.99631 6.54317 7.16942 6.09068 8.38611 6.09017ZM10.6992 8.64399C10.7009 8.73049 10.6669 8.81389 10.6052 8.8745L8.60784 10.8902C8.54929 10.9494 8.46946 10.9827 8.38617 10.9827C8.30288 10.9827 8.22305 10.9494 8.1645 10.8902L6.16684 8.8745C6.10513 8.81385 6.07118 8.73042 6.07301 8.64391C6.07484 8.55741 6.11228 8.47549 6.1765 8.4175C7.45208 7.33862 9.32027 7.33862 10.5958 8.4175C10.66 8.47553 10.6974 8.55748 10.6992 8.64399Z" fill="white"/>
</svg>
