<svg width="183" height="139" viewBox="0 0 183 139" fill="none" xmlns="http://www.w3.org/2000/svg">
<path fill-rule="evenodd" clip-rule="evenodd" d="M32.5 -5.59506e-06C14.8269 -2.50499e-06 0.500003 14.3269 0.500006 32L0.500013 77C0.500017 94.6731 14.8269 109 32.5 109L60.7117 109C62.477 109 64.1527 109.777 65.2928 111.125L86.9189 136.693C89.3157 139.527 93.6843 139.527 96.081 136.693L117.707 111.125C118.847 109.777 120.523 109 122.288 109L150.5 109C168.173 109 182.5 94.6731 182.5 77L182.5 32C182.5 14.3269 168.173 -2.93169e-05 150.5 -2.62268e-05L32.5 -5.59506e-06Z" fill="#35383F"/>
</svg>
