<svg width="25" height="24" viewBox="0 0 25 24" fill="none" xmlns="http://www.w3.org/2000/svg">
<mask id="mask0_1323_13491" style="mask-type:alpha" maskUnits="userSpaceOnUse" x="0" y="0" width="25" height="24">
<rect x="0.5" width="24" height="24" fill="white"/>
</mask>
<g mask="url(#mask0_1323_13491)">
<path d="M6.5 16H14.5V15.45C14.5 14.7167 14.1333 14.125 13.4 13.675C12.6667 13.225 11.7 13 10.5 13C9.3 13 8.33333 13.225 7.6 13.675C6.86667 14.125 6.5 14.7167 6.5 15.45V16ZM10.5 12C11.05 12 11.5208 11.8042 11.9125 11.4125C12.3042 11.0208 12.5 10.55 12.5 10C12.5 9.45 12.3042 8.97917 11.9125 8.5875C11.5208 8.19583 11.05 8 10.5 8C9.95 8 9.47917 8.19583 9.0875 8.5875C8.69583 8.97917 8.5 9.45 8.5 10C8.5 10.55 8.69583 11.0208 9.0875 11.4125C9.47917 11.8042 9.95 12 10.5 12ZM4.5 20C3.95 20 3.47917 19.8042 3.0875 19.4125C2.69583 19.0208 2.5 18.55 2.5 18V6C2.5 5.45 2.69583 4.97917 3.0875 4.5875C3.47917 4.19583 3.95 4 4.5 4H16.5C17.05 4 17.5208 4.19583 17.9125 4.5875C18.3042 4.97917 18.5 5.45 18.5 6V10.5L22.5 6.5V17.5L18.5 13.5V18C18.5 18.55 18.3042 19.0208 17.9125 19.4125C17.5208 19.8042 17.05 20 16.5 20H4.5ZM4.5 18H16.5V6H4.5V18Z" fill="#CA987E"/>
</g>
</svg>
